Title: 
Shirley Adams

Country:
South Africa, 2009

Languages:
English, Afrikaans

Subtitles:
French, Dutch

Director:
Oliver Hermanus

Writers:
Oliver Hermanus (story), Stavros Pamballis

Stars:
Denise Newman, Keenan Arrison, Emily Child


Synopsis:
Shirley Adams spends her days caring for her disabled son, Donovan - he was shot in the back of the neck on his way home from school one afternoon over a year ago. Since then the Adams family has lost all their worldly possessions to medical bills. Shirley has no money, no job and no husband - he left shooter is one of Donovan's childhood friends. Her reaction to the betrayal is so overwhelming that she chooses not to tell Donovan in fear of further damaging his already unstable emotional state. Determined to make a change in their lives, Shirley actively decides to embrace their new circumstances, hoping that Donovan will follow her example. But his mental state continues to deteriorate and Tamsin is unsuccessful in distracting him without a trace months ago. Shirley's life now consists of trying to make ends meet by shoplifting and relying on the charity of others. When a young, eager occupational therapist, Tamsin Ranger, comes into their lives, Shirley hopes that it might lift her... 

Imdb: 
http://www.imdb.com/title/tt1483507/?ref_=fn_al_tt_1

Trailer: 
http://www.cinemagia.ro/trailer/shirley-adams-5004/

Media Info:

General
Complete name                            : Shirley.Adams.2009.DVDRip.XviD.AC3.HORiZON-ArtSubs.avi
Format                                   : AVI
Format/Info                              : Audio Video Interleave
File size                                : 1.36 GiB
Duration                                 : 1h 31mn
Overall bit rate                         : 2 137 Kbps
Writing application                      : VirtualDubMod 1.5.4.1 (build 2178/release)
Writing library                          : VirtualDubMod build 2178/release

Video
ID                                       : 0
Format                                   : MPEG-4 Visual
Format profile                           : Advanced Simple@L5
Format settings, BVOP                    : No
Format settings, QPel                    : No
Format settings, GMC                     : No warppoints
Format settings, Matrix                  : Custom
Codec ID                                 : XVID
Codec ID/Hint                            : XviD
Duration                                 : 1h 31mn
Bit rate                                 : 1 938 Kbps
Width                                    : 720 pixels
Height                                   : 400 pixels
Display aspect ratio                     : 16:9
Frame rate                               : 25.000 fps
Color space                              : YUV
Chroma subsampling                       : 4:2:0
Bit depth                                : 8 bits
Scan type                                : Progressive
Compression mode                         : Lossy
Bits/(Pixel*Frame)                       : 0.269
Stream size                              : 1.24 GiB (91%)
Writing library                          : XviD 1.2.1 (UTC 2008-12-04)

Audio
ID                                       : 1
Format                                   : AC-3
Format/Info                              : Audio Coding 3
Mode extension                           : CM (complete main)
Format settings, Endianness              : Big
Codec ID                                 : 2000
Duration                                 : 1h 31mn
Bit rate mode                            : Constant
Bit rate                                 : 192 Kbps
Channel(s)                               : 2 channels
Channel positions                        : Front: L R
Sampling rate                            : 48.0 KHz
Bit depth                                : 16 bits
Compression mode                         : Lossy
Stream size                              : 126 MiB (9%)
Alignment                                : Split accross interleaves
Interleave, duration                     : 96 ms (2.40 video frames)
Interleave, preload duration             : 96 ms

